<svg width="373" height="116" viewBox="0 0 373 116" fill="none" xmlns="http://www.w3.org/2000/svg">
<path d="M0 72.0641L28.3209 20.8042L57.2947 72.0641H43.9371L28.6385 44.802L13.8693 72.0641H0Z" fill="#F54242"/>
<path d="M315.535 71.9757L343.856 20.7158L372.83 71.9757H359.472L344.191 44.6959L329.404 71.9757H315.535Z" fill="#F54242"/>
<path d="M116.531 20.6809V72.0644H128.089V42.8436L164.703 72.0644V20.0986H152.863L152.951 49.69L116.531 20.6809Z" fill="#F54242"/>
<path d="M175.695 21.0691V72.4525H187.253V43.2317L223.867 72.4525V20.4868H212.01L212.115 50.0782L175.695 21.0691Z" fill="#F54242"/>
<path d="M246.419 20.4868H234.949V72.4525H246.419V20.4868Z" fill="#F54242"/>
<path d="M257.588 20.4868V72.4525H269.34V53.3426L283.227 71.6585L297.29 53.1485L297.678 72.4525H309.236L308.848 20.4868L283.421 54.8954L257.588 20.4868Z" fill="#F54242"/>
<path fill-rule="evenodd" clip-rule="evenodd" d="M63.5762 72.6642V21.2102L63.5938 21.2278H91.4383C99.114 22.3924 105.131 28.4801 106.172 36.0676C107.249 43.9728 102.661 51.7368 95.0909 54.6659L109.348 72.6819H96.0437L82.9332 55.8128L75.1339 55.4246V72.6642H63.5762ZM74.9995 44.2929V30.0001H89.9275C92.9449 31.2 94.9035 34.1468 94.8153 37.3406C94.7271 40.3932 92.8037 43.1459 89.9275 44.2929H74.9995Z" fill="#F54242"/>
<path d="M2.71875 95.4992C2.71875 94.5305 2.66406 93.8352 2.55469 93.4133C2.50781 93.2883 2.28125 93.1789 1.875 93.0852C1.48438 92.9758 1.1875 92.9211 0.984375 92.9211C0.921875 92.9211 0.890625 92.8196 0.890625 92.6164C0.890625 92.4289 0.921875 92.3039 0.984375 92.2414C2.78125 92.3196 3.71875 92.3586 3.79688 92.3586C4.04688 92.3586 4.95312 92.3196 6.51562 92.2414C6.54688 92.3352 6.5625 92.4524 6.5625 92.593C6.5625 92.8117 6.53125 92.9211 6.46875 92.9211C6.3125 92.9211 6.03125 92.9758 5.625 93.0852C5.21875 93.1946 5 93.3039 4.96875 93.4133C4.82812 93.9602 4.75781 94.6867 4.75781 95.593V104.499C4.75781 105.405 4.82812 106.132 4.96875 106.679C5 106.788 5.21875 106.898 5.625 107.007C6.03125 107.101 6.3125 107.148 6.46875 107.148C6.53125 107.148 6.5625 107.265 6.5625 107.499C6.5625 107.624 6.54688 107.734 6.51562 107.827C4.95312 107.749 4.04688 107.71 3.79688 107.71C3.71875 107.71 2.78125 107.749 0.984375 107.827C0.921875 107.765 0.890625 107.648 0.890625 107.476C0.890625 107.257 0.921875 107.148 0.984375 107.148C1.1875 107.148 1.48438 107.101 1.875 107.007C2.28125 106.913 2.50781 106.804 2.55469 106.679C2.66406 106.257 2.71875 105.562 2.71875 104.593V95.4992ZM15 97.4914C16.0938 97.4914 16.8594 97.8821 17.2969 98.6633C17.7344 99.4446 17.9531 100.71 17.9531 102.46V104.593C17.9531 105.499 18.0156 106.194 18.1406 106.679C18.1719 106.788 18.375 106.898 18.75 107.007C19.125 107.101 19.3906 107.148 19.5469 107.148C19.5938 107.148 19.625 107.241 19.6406 107.429C19.6562 107.616 19.6484 107.749 19.6172 107.827C18.0547 107.749 17.2188 107.71 17.1094 107.71C17.0781 107.71 16.2578 107.749 14.6484 107.827C14.5859 107.765 14.5547 107.64 14.5547 107.452C14.5547 107.249 14.5859 107.148 14.6484 107.148C14.8359 107.148 15.0938 107.101 15.4219 107.007C15.7656 106.898 15.9531 106.788 15.9844 106.679C16.0938 106.226 16.1484 105.679 16.1484 105.038V102.694C16.1484 101.241 15.9609 100.249 15.5859 99.718C15.2109 99.1867 14.6016 98.9211 13.7578 98.9211C13.2578 98.9211 12.7734 99.1086 12.3047 99.4836C11.8516 99.843 11.625 100.171 11.625 100.468V104.593C11.625 105.499 11.6875 106.194 11.8125 106.679C11.8438 106.788 12.0469 106.898 12.4219 107.007C12.7969 107.101 13.0625 107.148 13.2188 107.148C13.2656 107.148 13.2969 107.241 13.3125 107.429C13.3281 107.616 13.3203 107.749 13.2891 107.827C11.7266 107.749 10.8906 107.71 10.7812 107.71C10.6875 107.71 9.83594 107.749 8.22656 107.827C8.16406 107.765 8.13281 107.64 8.13281 107.452C8.13281 107.249 8.16406 107.148 8.22656 107.148C8.41406 107.148 8.6875 107.101 9.04688 107.007C9.42188 106.898 9.625 106.788 9.65625 106.679C9.76562 106.226 9.82031 105.679 9.82031 105.038V100.609C9.82031 99.9992 9.71094 99.5774 9.49219 99.343C9.33594 99.1555 9.14062 99.0305 8.90625 98.968C8.6875 98.8899 8.5 98.8508 8.34375 98.8508C8.20312 98.8508 8.13281 98.8352 8.13281 98.8039C8.13281 98.4289 8.17969 98.2336 8.27344 98.218C9.92969 97.968 11.0078 97.7649 11.5078 97.6086C11.5234 97.6086 11.5469 97.6086 11.5781 97.6086C11.6094 97.593 11.625 97.5852 11.625 97.5852C11.6875 97.5852 11.7266 97.6555 11.7422 97.7961C11.7578 97.9211 11.7578 98.0149 11.7422 98.0774C11.6797 98.5149 11.6484 98.8274 11.6484 99.0149C11.6484 99.0774 11.6641 99.1086 11.6953 99.1086C11.7109 99.1086 11.7344 99.093 11.7656 99.0617C12.125 98.6867 12.6094 98.3352 13.2188 98.0071C13.8438 97.6633 14.4375 97.4914 15 97.4914ZM27.7266 97.4914C28.8203 97.4914 29.5859 97.8821 30.0234 98.6633C30.4609 99.4446 30.6797 100.71 30.6797 102.46V104.593C30.6797 105.499 30.7422 106.194 30.8672 106.679C30.8984 106.788 31.1016 106.898 31.4766 107.007C31.8516 107.101 32.1172 107.148 32.2734 107.148C32.3203 107.148 32.3516 107.241 32.3672 107.429C32.3828 107.616 32.375 107.749 32.3438 107.827C30.7812 107.749 29.9453 107.71 29.8359 107.71C29.8047 107.71 28.9844 107.749 27.375 107.827C27.3125 107.765 27.2812 107.64 27.2812 107.452C27.2812 107.249 27.3125 107.148 27.375 107.148C27.5625 107.148 27.8203 107.101 28.1484 107.007C28.4922 106.898 28.6797 106.788 28.7109 106.679C28.8203 106.226 28.875 105.679 28.875 105.038V102.694C28.875 101.241 28.6875 100.249 28.3125 99.718C27.9375 99.1867 27.3281 98.9211 26.4844 98.9211C25.9844 98.9211 25.5 99.1086 25.0312 99.4836C24.5781 99.843 24.3516 100.171 24.3516 100.468V104.593C24.3516 105.499 24.4141 106.194 24.5391 106.679C24.5703 106.788 24.7734 106.898 25.1484 107.007C25.5234 107.101 25.7891 107.148 25.9453 107.148C25.9922 107.148 26.0234 107.241 26.0391 107.429C26.0547 107.616 26.0469 107.749 26.0156 107.827C24.4531 107.749 23.6172 107.71 23.5078 107.71C23.4141 107.71 22.5625 107.749 20.9531 107.827C20.8906 107.765 20.8594 107.64 20.8594 107.452C20.8594 107.249 20.8906 107.148 20.9531 107.148C21.1406 107.148 21.4141 107.101 21.7734 107.007C22.1484 106.898 22.3516 106.788 22.3828 106.679C22.4922 106.226 22.5469 105.679 22.5469 105.038V100.609C22.5469 99.9992 22.4375 99.5774 22.2188 99.343C22.0625 99.1555 21.8672 99.0305 21.6328 98.968C21.4141 98.8899 21.2266 98.8508 21.0703 98.8508C20.9297 98.8508 20.8594 98.8352 20.8594 98.8039C20.8594 98.4289 20.9062 98.2336 21 98.218C22.6562 97.968 23.7344 97.7649 24.2344 97.6086C24.25 97.6086 24.2734 97.6086 24.3047 97.6086C24.3359 97.593 24.3516 97.5852 24.3516 97.5852C24.4141 97.5852 24.4531 97.6555 24.4688 97.7961C24.4844 97.9211 24.4844 98.0149 24.4688 98.0774C24.4062 98.5149 24.375 98.8274 24.375 99.0149C24.375 99.0774 24.3906 99.1086 24.4219 99.1086C24.4375 99.1086 24.4609 99.093 24.4922 99.0617C24.8516 98.6867 25.3359 98.3352 25.9453 98.0071C26.5703 97.6633 27.1641 97.4914 27.7266 97.4914ZM38.6016 98.4289C37.7734 98.4289 37.0938 98.8117 36.5625 99.5774C36.0469 100.327 35.7891 101.249 35.7891 102.343C35.7891 103.624 36.1172 104.726 36.7734 105.648C37.4453 106.554 38.2266 107.007 39.1172 107.007C39.9453 107.007 40.625 106.616 41.1562 105.835C41.6875 105.054 41.9531 104.116 41.9531 103.023C41.9531 101.757 41.6172 100.679 40.9453 99.7883C40.2734 98.8821 39.4922 98.4289 38.6016 98.4289ZM38.8594 97.5149C40.2656 97.5149 41.4688 98.0227 42.4688 99.0383C43.4688 100.054 43.9688 101.273 43.9688 102.694C43.9688 104.132 43.4766 105.366 42.4922 106.398C41.5234 107.413 40.3281 107.921 38.9062 107.921C37.4844 107.921 36.2734 107.413 35.2734 106.398C34.2734 105.366 33.7734 104.132 33.7734 102.694C33.7734 101.241 34.2578 100.015 35.2266 99.0149C36.1953 98.0149 37.4062 97.5149 38.8594 97.5149ZM53.8359 99.0149C53.8359 98.5149 53.2734 98.2649 52.1484 98.2649C52.0859 98.2649 52.0547 98.1711 52.0547 97.9836C52.0547 97.7805 52.0859 97.6477 52.1484 97.5852C52.3203 97.6008 52.6406 97.6242 53.1094 97.6555C53.5781 97.6867 54 97.7024 54.375 97.7024L56.7188 97.5852C56.75 97.6789 56.7656 97.7961 56.7656 97.9367C56.7656 98.1555 56.7109 98.2649 56.6016 98.2649C56.3828 98.2649 56.0938 98.3274 55.7344 98.4524C55.375 98.5774 55.1328 98.7805 55.0078 99.0617L51.2812 107.476C51.25 107.585 51.1562 107.702 51 107.827C50.8438 107.952 50.7109 108.015 50.6016 108.015C50.4922 108.015 50.4219 107.984 50.3906 107.921C50.125 107.343 49.5391 105.999 48.6328 103.89C47.7422 101.78 46.9609 100.062 46.2891 98.7336C46.1328 98.4211 45.6719 98.2649 44.9062 98.2649C44.8438 98.2649 44.8125 98.1633 44.8125 97.9602C44.8125 97.7727 44.8438 97.6477 44.9062 97.5852C46.5156 97.6633 47.3281 97.7024 47.3438 97.7024L49.6875 97.5852C49.7188 97.6477 49.7188 97.7805 49.6875 97.9836C49.6719 98.1711 49.6406 98.2649 49.5938 98.2649C48.8281 98.2649 48.4453 98.3977 48.4453 98.6633C48.4453 98.6946 48.4531 98.7258 48.4688 98.7571L51.2812 105.109L53.6484 99.718C53.7734 99.4211 53.8359 99.1867 53.8359 99.0149ZM59.6953 106.257C59.9609 106.476 60.3047 106.585 60.7266 106.585C61.1484 106.585 61.5547 106.46 61.9453 106.21C62.3359 105.944 62.5312 105.679 62.5312 105.413V102.999C62.4062 103.062 62.1016 103.171 61.6172 103.327C61.1328 103.484 60.75 103.624 60.4688 103.749C60.2031 103.859 59.9375 104.054 59.6719 104.335C59.4219 104.601 59.2969 104.913 59.2969 105.273C59.2969 105.694 59.4297 106.023 59.6953 106.257ZM61.8984 97.5383C62.7578 97.5383 63.375 97.7492 63.75 98.1711C64.125 98.5774 64.3125 99.2414 64.3125 100.163V105.577C64.3125 105.905 64.3984 106.179 64.5703 106.398C64.7422 106.616 64.9766 106.726 65.2734 106.726C65.4922 106.726 65.7656 106.616 66.0938 106.398C66.1562 106.398 66.1875 106.46 66.1875 106.585C66.1875 106.788 66.1484 106.952 66.0703 107.077C65.4297 107.624 64.8828 107.898 64.4297 107.898C64.0703 107.898 63.7266 107.749 63.3984 107.452C63.0703 107.155 62.8438 106.843 62.7188 106.515C62.7031 106.515 62.6406 106.569 62.5312 106.679C62.4375 106.773 62.3047 106.89 62.1328 107.03C61.9609 107.155 61.7578 107.288 61.5234 107.429C61.3047 107.569 61.0391 107.687 60.7266 107.78C60.4297 107.874 60.125 107.921 59.8125 107.921C59.0938 107.921 58.5 107.734 58.0312 107.359C57.5625 106.968 57.3281 106.39 57.3281 105.624C57.3281 105.28 57.4141 104.96 57.5859 104.663C57.7578 104.351 57.9609 104.101 58.1953 103.913C58.4297 103.71 58.75 103.507 59.1562 103.304C59.5625 103.101 59.9062 102.952 60.1875 102.859C60.4844 102.749 60.8672 102.616 61.3359 102.46C61.8047 102.304 62.1328 102.187 62.3203 102.109C62.4609 102.062 62.5312 101.944 62.5312 101.757V99.9992C62.5312 99.4992 62.375 99.1164 62.0625 98.8508C61.75 98.5696 61.375 98.4289 60.9375 98.4289C60.4688 98.4289 60.0781 98.593 59.7656 98.9211C59.4531 99.2336 59.2969 99.6477 59.2969 100.163C59.2969 100.71 58.9766 100.984 58.3359 100.984C57.8984 100.984 57.5938 100.835 57.4219 100.538C57.4219 99.8664 57.9141 99.2024 58.8984 98.5461C59.8828 97.8742 60.8828 97.5383 61.8984 97.5383ZM68.2031 98.9914H66.8438C66.7656 98.9914 66.7266 98.8274 66.7266 98.4992C66.7266 98.4055 66.7344 98.3508 66.75 98.3352C67.2031 98.1321 67.6953 97.718 68.2266 97.093C68.3984 96.8899 68.5625 96.6633 68.7188 96.4133C68.8906 96.1477 69.0312 95.9211 69.1406 95.7336C69.25 95.5461 69.3047 95.4446 69.3047 95.4289C69.7734 95.4289 70.0078 95.468 70.0078 95.5461V97.8664C70.4141 97.8664 71.0312 97.8742 71.8594 97.8899C72.6875 97.8899 73.125 97.8899 73.1719 97.8899C73.2969 97.8899 73.3594 97.9602 73.3594 98.1008C73.3594 98.3821 73.2812 98.6789 73.125 98.9914H70.0078V104.734C70.0078 105.359 70.1641 105.859 70.4766 106.234C70.8047 106.609 71.2266 106.796 71.7422 106.796C72.2109 106.796 72.6953 106.648 73.1953 106.351C73.2422 106.319 73.3125 106.39 73.4062 106.562C73.5 106.718 73.5391 106.804 73.5234 106.819C73.2891 107.069 72.9297 107.319 72.4453 107.569C71.9609 107.804 71.4609 107.921 70.9453 107.921C70.1641 107.921 69.5078 107.663 68.9766 107.148C68.4609 106.632 68.2031 105.898 68.2031 104.944V98.9914ZM76.0078 94.7024C75.7891 94.468 75.6797 94.1867 75.6797 93.8586C75.6797 93.5305 75.7891 93.2571 76.0078 93.0383C76.2422 92.8039 76.5234 92.6867 76.8516 92.6867C77.1797 92.6867 77.4531 92.8039 77.6719 93.0383C77.9062 93.2571 78.0234 93.5305 78.0234 93.8586C78.0234 94.1867 77.9062 94.468 77.6719 94.7024C77.4531 94.9211 77.1797 95.0305 76.8516 95.0305C76.5234 95.0305 76.2422 94.9211 76.0078 94.7024ZM77.9297 104.593C77.9297 105.499 77.9922 106.194 78.1172 106.679C78.1484 106.788 78.3516 106.898 78.7266 107.007C79.1016 107.101 79.3672 107.148 79.5234 107.148C79.5703 107.148 79.6016 107.241 79.6172 107.429C79.6328 107.616 79.625 107.749 79.5938 107.827C78.0312 107.749 77.1953 107.71 77.0859 107.71C76.9766 107.71 76.125 107.749 74.5312 107.827C74.4688 107.765 74.4375 107.64 74.4375 107.452C74.4375 107.249 74.4688 107.148 74.5312 107.148C74.7188 107.148 74.9922 107.101 75.3516 107.007C75.7266 106.898 75.9297 106.788 75.9609 106.679C76.0703 106.226 76.125 105.679 76.125 105.038V100.609C76.125 99.9992 76.0156 99.5774 75.7969 99.343C75.6406 99.1555 75.4453 99.0305 75.2109 98.968C74.9922 98.8899 74.8047 98.8508 74.6484 98.8508C74.5078 98.8508 74.4375 98.8352 74.4375 98.8039C74.4375 98.4289 74.4844 98.2336 74.5781 98.218C76.2344 97.968 77.3125 97.7649 77.8125 97.6086L77.8594 97.5852C77.8906 97.5852 77.9141 97.5852 77.9297 97.5852C77.9922 97.5852 78.0312 97.6555 78.0469 97.7961C78.0625 97.9211 78.0625 98.0149 78.0469 98.0774C77.9688 98.7024 77.9297 99.2649 77.9297 99.7649V104.593ZM85.6875 98.4289C84.8594 98.4289 84.1797 98.8117 83.6484 99.5774C83.1328 100.327 82.875 101.249 82.875 102.343C82.875 103.624 83.2031 104.726 83.8594 105.648C84.5312 106.554 85.3125 107.007 86.2031 107.007C87.0312 107.007 87.7109 106.616 88.2422 105.835C88.7734 105.054 89.0391 104.116 89.0391 103.023C89.0391 101.757 88.7031 100.679 88.0312 99.7883C87.3594 98.8821 86.5781 98.4289 85.6875 98.4289ZM85.9453 97.5149C87.3516 97.5149 88.5547 98.0227 89.5547 99.0383C90.5547 100.054 91.0547 101.273 91.0547 102.694C91.0547 104.132 90.5625 105.366 89.5781 106.398C88.6094 107.413 87.4141 107.921 85.9922 107.921C84.5703 107.921 83.3594 107.413 82.3594 106.398C81.3594 105.366 80.8594 104.132 80.8594 102.694C80.8594 101.241 81.3438 100.015 82.3125 99.0149C83.2812 98.0149 84.4922 97.5149 85.9453 97.5149ZM99.4922 97.4914C100.586 97.4914 101.352 97.8821 101.789 98.6633C102.227 99.4446 102.445 100.71 102.445 102.46V104.593C102.445 105.499 102.508 106.194 102.633 106.679C102.664 106.788 102.867 106.898 103.242 107.007C103.617 107.101 103.883 107.148 104.039 107.148C104.086 107.148 104.117 107.241 104.133 107.429C104.148 107.616 104.141 107.749 104.109 107.827C102.547 107.749 101.711 107.71 101.602 107.71C101.57 107.71 100.75 107.749 99.1406 107.827C99.0781 107.765 99.0469 107.64 99.0469 107.452C99.0469 107.249 99.0781 107.148 99.1406 107.148C99.3281 107.148 99.5859 107.101 99.9141 107.007C100.258 106.898 100.445 106.788 100.477 106.679C100.586 106.226 100.641 105.679 100.641 105.038V102.694C100.641 101.241 100.453 100.249 100.078 99.718C99.7031 99.1867 99.0938 98.9211 98.25 98.9211C97.75 98.9211 97.2656 99.1086 96.7969 99.4836C96.3438 99.843 96.1172 100.171 96.1172 100.468V104.593C96.1172 105.499 96.1797 106.194 96.3047 106.679C96.3359 106.788 96.5391 106.898 96.9141 107.007C97.2891 107.101 97.5547 107.148 97.7109 107.148C97.7578 107.148 97.7891 107.241 97.8047 107.429C97.8203 107.616 97.8125 107.749 97.7812 107.827C96.2188 107.749 95.3828 107.71 95.2734 107.71C95.1797 107.71 94.3281 107.749 92.7188 107.827C92.6562 107.765 92.625 107.64 92.625 107.452C92.625 107.249 92.6562 107.148 92.7188 107.148C92.9062 107.148 93.1797 107.101 93.5391 107.007C93.9141 106.898 94.1172 106.788 94.1484 106.679C94.2578 106.226 94.3125 105.679 94.3125 105.038V100.609C94.3125 99.9992 94.2031 99.5774 93.9844 99.343C93.8281 99.1555 93.6328 99.0305 93.3984 98.968C93.1797 98.8899 92.9922 98.8508 92.8359 98.8508C92.6953 98.8508 92.625 98.8352 92.625 98.8039C92.625 98.4289 92.6719 98.2336 92.7656 98.218C94.4219 97.968 95.5 97.7649 96 97.6086C96.0156 97.6086 96.0391 97.6086 96.0703 97.6086C96.1016 97.593 96.1172 97.5852 96.1172 97.5852C96.1797 97.5852 96.2188 97.6555 96.2344 97.7961C96.25 97.9211 96.25 98.0149 96.2344 98.0774C96.1719 98.5149 96.1406 98.8274 96.1406 99.0149C96.1406 99.0774 96.1562 99.1086 96.1875 99.1086C96.2031 99.1086 96.2266 99.093 96.2578 99.0617C96.6172 98.6867 97.1016 98.3352 97.7109 98.0071C98.3359 97.6633 98.9297 97.4914 99.4922 97.4914ZM111.914 98.9914H110.555C110.477 98.9914 110.438 98.8274 110.438 98.4992C110.438 98.4055 110.445 98.3508 110.461 98.3352C110.914 98.1321 111.406 97.718 111.938 97.093C112.109 96.8899 112.273 96.6633 112.43 96.4133C112.602 96.1477 112.742 95.9211 112.852 95.7336C112.961 95.5461 113.016 95.4446 113.016 95.4289C113.484 95.4289 113.719 95.468 113.719 95.5461V97.8664C114.125 97.8664 114.742 97.8742 115.57 97.8899C116.398 97.8899 116.836 97.8899 116.883 97.8899C117.008 97.8899 117.07 97.9602 117.07 98.1008C117.07 98.3821 116.992 98.6789 116.836 98.9914H113.719V104.734C113.719 105.359 113.875 105.859 114.188 106.234C114.516 106.609 114.938 106.796 115.453 106.796C115.922 106.796 116.406 106.648 116.906 106.351C116.953 106.319 117.023 106.39 117.117 106.562C117.211 106.718 117.25 106.804 117.234 106.819C117 107.069 116.641 107.319 116.156 107.569C115.672 107.804 115.172 107.921 114.656 107.921C113.875 107.921 113.219 107.663 112.688 107.148C112.172 106.632 111.914 105.898 111.914 104.944V98.9914ZM124.711 97.4914C125.758 97.4914 126.508 97.8664 126.961 98.6164C127.414 99.3664 127.641 100.523 127.641 102.085V104.616C127.641 105.507 127.703 106.194 127.828 106.679C127.859 106.788 128.062 106.898 128.438 107.007C128.812 107.101 129.078 107.148 129.234 107.148C129.281 107.148 129.312 107.241 129.328 107.429C129.344 107.616 129.336 107.749 129.305 107.827C127.742 107.749 126.906 107.71 126.797 107.71C126.75 107.71 125.93 107.749 124.336 107.827C124.273 107.765 124.242 107.64 124.242 107.452C124.242 107.249 124.273 107.148 124.336 107.148C124.523 107.148 124.781 107.101 125.109 107.007C125.453 106.898 125.641 106.788 125.672 106.679C125.781 106.226 125.836 105.679 125.836 105.038V102.554C125.836 101.116 125.633 100.155 125.227 99.6711C124.836 99.1711 124.227 98.9211 123.398 98.9211C122.93 98.9211 122.461 99.1086 121.992 99.4836C121.539 99.843 121.312 100.163 121.312 100.444V104.593C121.312 105.499 121.375 106.194 121.5 106.679C121.531 106.788 121.734 106.898 122.109 107.007C122.484 107.101 122.75 107.148 122.906 107.148C122.953 107.148 122.984 107.241 123 107.429C123.016 107.616 123.008 107.749 122.977 107.827C121.414 107.749 120.578 107.71 120.469 107.71C120.375 107.71 119.523 107.749 117.914 107.827C117.852 107.765 117.82 107.64 117.82 107.452C117.82 107.249 117.852 107.148 117.914 107.148C118.102 107.148 118.375 107.101 118.734 107.007C119.109 106.898 119.312 106.788 119.344 106.679C119.453 106.226 119.508 105.687 119.508 105.062V94.8899C119.508 94.3586 119.461 93.8586 119.367 93.3899C119.289 93.1399 118.891 93.0149 118.172 93.0149H117.961C117.867 93.0149 117.82 92.9289 117.82 92.7571C117.82 92.5071 117.867 92.3821 117.961 92.3821C118.43 92.3352 118.859 92.2727 119.25 92.1946C119.656 92.1164 119.969 92.0383 120.188 91.9602C120.422 91.8821 120.617 91.8117 120.773 91.7492C120.93 91.6711 121.039 91.6086 121.102 91.5617L121.219 91.4914H121.266C121.328 91.4914 121.391 91.5383 121.453 91.6321C121.516 91.7102 121.555 91.7883 121.57 91.8664C121.398 92.3664 121.312 93.0461 121.312 93.9055V99.0383C121.312 99.1008 121.328 99.1321 121.359 99.1321C121.375 99.1321 121.398 99.1164 121.43 99.0852C121.773 98.7102 122.258 98.3508 122.883 98.0071C123.523 97.6633 124.133 97.4914 124.711 97.4914ZM133.102 106.257C133.367 106.476 133.711 106.585 134.133 106.585C134.555 106.585 134.961 106.46 135.352 106.21C135.742 105.944 135.938 105.679 135.938 105.413V102.999C135.812 103.062 135.508 103.171 135.023 103.327C134.539 103.484 134.156 103.624 133.875 103.749C133.609 103.859 133.344 104.054 133.078 104.335C132.828 104.601 132.703 104.913 132.703 105.273C132.703 105.694 132.836 106.023 133.102 106.257ZM135.305 97.5383C136.164 97.5383 136.781 97.7492 137.156 98.1711C137.531 98.5774 137.719 99.2414 137.719 100.163V105.577C137.719 105.905 137.805 106.179 137.977 106.398C138.148 106.616 138.383 106.726 138.68 106.726C138.898 106.726 139.172 106.616 139.5 106.398C139.562 106.398 139.594 106.46 139.594 106.585C139.594 106.788 139.555 106.952 139.477 107.077C138.836 107.624 138.289 107.898 137.836 107.898C137.477 107.898 137.133 107.749 136.805 107.452C136.477 107.155 136.25 106.843 136.125 106.515C136.109 106.515 136.047 106.569 135.938 106.679C135.844 106.773 135.711 106.89 135.539 107.03C135.367 107.155 135.164 107.288 134.93 107.429C134.711 107.569 134.445 107.687 134.133 107.78C133.836 107.874 133.531 107.921 133.219 107.921C132.5 107.921 131.906 107.734 131.438 107.359C130.969 106.968 130.734 106.39 130.734 105.624C130.734 105.28 130.82 104.96 130.992 104.663C131.164 104.351 131.367 104.101 131.602 103.913C131.836 103.71 132.156 103.507 132.562 103.304C132.969 103.101 133.312 102.952 133.594 102.859C133.891 102.749 134.273 102.616 134.742 102.46C135.211 102.304 135.539 102.187 135.727 102.109C135.867 102.062 135.938 101.944 135.938 101.757V99.9992C135.938 99.4992 135.781 99.1164 135.469 98.8508C135.156 98.5696 134.781 98.4289 134.344 98.4289C133.875 98.4289 133.484 98.593 133.172 98.9211C132.859 99.2336 132.703 99.6477 132.703 100.163C132.703 100.71 132.383 100.984 131.742 100.984C131.305 100.984 131 100.835 130.828 100.538C130.828 99.8664 131.32 99.2024 132.305 98.5461C133.289 97.8742 134.289 97.5383 135.305 97.5383ZM141.609 98.9914H140.25C140.172 98.9914 140.133 98.8274 140.133 98.4992C140.133 98.4055 140.141 98.3508 140.156 98.3352C140.609 98.1321 141.102 97.718 141.633 97.093C141.805 96.8899 141.969 96.6633 142.125 96.4133C142.297 96.1477 142.438 95.9211 142.547 95.7336C142.656 95.5461 142.711 95.4446 142.711 95.4289C143.18 95.4289 143.414 95.468 143.414 95.5461V97.8664C143.82 97.8664 144.438 97.8742 145.266 97.8899C146.094 97.8899 146.531 97.8899 146.578 97.8899C146.703 97.8899 146.766 97.9602 146.766 98.1008C146.766 98.3821 146.688 98.6789 146.531 98.9914H143.414V104.734C143.414 105.359 143.57 105.859 143.883 106.234C144.211 106.609 144.633 106.796 145.148 106.796C145.617 106.796 146.102 106.648 146.602 106.351C146.648 106.319 146.719 106.39 146.812 106.562C146.906 106.718 146.945 106.804 146.93 106.819C146.695 107.069 146.336 107.319 145.852 107.569C145.367 107.804 144.867 107.921 144.352 107.921C143.57 107.921 142.914 107.663 142.383 107.148C141.867 106.632 141.609 105.898 141.609 104.944V98.9914ZM159.422 91.468C160.547 91.468 161.289 91.7727 161.648 92.3821C161.648 93.3664 161.367 93.8586 160.805 93.8586C160.602 93.8586 160.406 93.7414 160.219 93.5071C160.031 93.2571 159.812 93.0071 159.562 92.7571C159.328 92.5071 159.039 92.3821 158.695 92.3821C158.008 92.3821 157.477 92.8039 157.102 93.6477C156.727 94.4914 156.539 95.4836 156.539 96.6242V97.8196C156.539 97.8977 156.578 97.9367 156.656 97.9367H159.258C159.336 97.9367 159.375 97.9914 159.375 98.1008C159.375 98.3508 159.281 98.6633 159.094 99.0383H156.68C156.586 99.0383 156.539 99.0852 156.539 99.1789V104.593C156.539 105.437 156.609 106.132 156.75 106.679C156.781 106.788 156.969 106.898 157.312 107.007C157.672 107.101 157.922 107.148 158.062 107.148C158.109 107.148 158.141 107.241 158.156 107.429C158.172 107.616 158.164 107.749 158.133 107.827C156.57 107.749 155.734 107.71 155.625 107.71C155.578 107.71 154.758 107.749 153.164 107.827C153.133 107.796 153.109 107.726 153.094 107.616C153.078 107.491 153.078 107.382 153.094 107.288C153.109 107.194 153.133 107.148 153.164 107.148C153.352 107.148 153.617 107.101 153.961 107.007C154.305 106.898 154.492 106.788 154.523 106.679C154.68 106.069 154.758 105.374 154.758 104.593V99.2024C154.758 99.093 154.719 99.0383 154.641 99.0383H153.398C153.352 99.0383 153.328 98.9914 153.328 98.8977C153.328 98.7571 153.453 98.5617 153.703 98.3117C153.953 98.0617 154.219 97.9367 154.5 97.9367H154.641C154.719 97.9367 154.758 97.8899 154.758 97.7961V97.4914C154.758 95.8508 155.242 94.4367 156.211 93.2492C157.195 92.0617 158.266 91.468 159.422 91.468ZM161.555 105.038V94.8899C161.555 94.3586 161.508 93.8586 161.414 93.3899C161.336 93.1399 160.938 93.0149 160.219 93.0149H160.008C159.914 93.0149 159.867 92.9289 159.867 92.7571C159.867 92.5071 159.914 92.3821 160.008 92.3821C160.477 92.3352 160.906 92.2727 161.297 92.1946C161.703 92.1164 162.016 92.0383 162.234 91.9602C162.469 91.8821 162.664 91.8117 162.82 91.7492C162.977 91.6711 163.094 91.6086 163.172 91.5617L163.266 91.4914H163.312C163.375 91.4914 163.438 91.5383 163.5 91.6321C163.562 91.7102 163.602 91.7883 163.617 91.8664C163.445 92.3664 163.359 93.0461 163.359 93.9055V104.593C163.359 105.499 163.422 106.194 163.547 106.679C163.578 106.788 163.781 106.898 164.156 107.007C164.531 107.101 164.797 107.148 164.953 107.148C165 107.148 165.031 107.241 165.047 107.429C165.062 107.616 165.055 107.749 165.023 107.827C163.461 107.749 162.625 107.71 162.516 107.71C162.422 107.71 161.57 107.749 159.961 107.827C159.898 107.765 159.867 107.64 159.867 107.452C159.867 107.249 159.898 107.148 159.961 107.148C160.148 107.148 160.422 107.101 160.781 107.007C161.156 106.898 161.359 106.788 161.391 106.679C161.5 106.226 161.555 105.679 161.555 105.038ZM171.094 98.4289C170.266 98.4289 169.586 98.8117 169.055 99.5774C168.539 100.327 168.281 101.249 168.281 102.343C168.281 103.624 168.609 104.726 169.266 105.648C169.938 106.554 170.719 107.007 171.609 107.007C172.438 107.007 173.117 106.616 173.648 105.835C174.18 105.054 174.445 104.116 174.445 103.023C174.445 101.757 174.109 100.679 173.438 99.7883C172.766 98.8821 171.984 98.4289 171.094 98.4289ZM171.352 97.5149C172.758 97.5149 173.961 98.0227 174.961 99.0383C175.961 100.054 176.461 101.273 176.461 102.694C176.461 104.132 175.969 105.366 174.984 106.398C174.016 107.413 172.82 107.921 171.398 107.921C169.977 107.921 168.766 107.413 167.766 106.398C166.766 105.366 166.266 104.132 166.266 102.694C166.266 101.241 166.75 100.015 167.719 99.0149C168.688 98.0149 169.898 97.5149 171.352 97.5149ZM191.953 99.0852C191.953 98.5383 191.438 98.2649 190.406 98.2649H190.312C190.25 98.2649 190.219 98.1711 190.219 97.9836C190.219 97.7805 190.25 97.6477 190.312 97.5852C190.547 97.6008 190.805 97.6164 191.086 97.6321C191.383 97.6477 191.648 97.6633 191.883 97.6789C192.133 97.6946 192.398 97.7024 192.68 97.7024C192.945 97.7024 193.172 97.6946 193.359 97.6789C193.562 97.6633 193.789 97.6477 194.039 97.6321C194.289 97.6164 194.531 97.6008 194.766 97.5852C194.797 97.6789 194.812 97.7961 194.812 97.9367C194.812 98.1555 194.773 98.2649 194.695 98.2649C194.492 98.2649 194.219 98.3352 193.875 98.4758C193.531 98.6008 193.305 98.8117 193.195 99.1086L190.125 107.499C190 107.843 189.781 108.015 189.469 108.015C189.312 108.015 189.219 107.984 189.188 107.921L186.305 101.03L183.938 107.499C183.922 107.546 183.891 107.609 183.844 107.687C183.797 107.749 183.719 107.819 183.609 107.898C183.516 107.976 183.414 108.015 183.305 108.015C183.148 108.015 183.055 107.984 183.023 107.921C182.648 107.077 182.219 106.069 181.734 104.898C181.266 103.71 180.82 102.648 180.398 101.71C179.977 100.757 179.484 99.7805 178.922 98.7805C178.719 98.4367 178.297 98.2649 177.656 98.2649C177.594 98.2649 177.562 98.1633 177.562 97.9602C177.562 97.7727 177.594 97.6477 177.656 97.5852C177.891 97.6008 178.148 97.6164 178.43 97.6321C178.711 97.6477 178.969 97.6633 179.203 97.6789C179.438 97.6946 179.695 97.7024 179.977 97.7024L182.32 97.5852C182.352 97.6477 182.359 97.7805 182.344 97.9836C182.344 98.1711 182.32 98.2649 182.273 98.2649C181.492 98.2649 181.102 98.4446 181.102 98.8039C181.102 98.8508 181.195 99.0852 181.383 99.5071C181.586 99.9289 181.93 100.663 182.414 101.71C182.898 102.741 183.391 103.819 183.891 104.944C184.156 104.179 184.453 103.335 184.781 102.413C185.109 101.491 185.336 100.835 185.461 100.444C185.602 100.054 185.672 99.8274 185.672 99.7649C185.672 99.6867 185.633 99.5617 185.555 99.3899C185.492 99.218 185.422 99.0696 185.344 98.9446L185.227 98.7336C185.133 98.593 184.984 98.4758 184.781 98.3821C184.625 98.3039 184.375 98.2649 184.031 98.2649C183.969 98.2649 183.938 98.1711 183.938 97.9836C183.938 97.7805 183.969 97.6477 184.031 97.5852C184.266 97.6008 184.516 97.6164 184.781 97.6321C185.062 97.6477 185.312 97.6633 185.531 97.6789C185.766 97.6946 186.023 97.7024 186.305 97.7024C186.57 97.7024 186.812 97.6946 187.031 97.6789C187.266 97.6633 187.531 97.6477 187.828 97.6321C188.125 97.6164 188.383 97.6008 188.602 97.5852C188.633 97.6789 188.648 97.8117 188.648 97.9836C188.648 98.1555 188.625 98.2492 188.578 98.2649C187.828 98.2649 187.453 98.5696 187.453 99.1789C187.453 99.5071 188.312 101.429 190.031 104.944C190.266 104.226 190.562 103.359 190.922 102.343C191.281 101.327 191.539 100.577 191.695 100.093C191.867 99.593 191.953 99.2571 191.953 99.0852ZM199.031 97.5149C199.375 97.5149 199.805 97.5617 200.32 97.6555C200.852 97.7336 201.219 97.7883 201.422 97.8196C201.578 98.5383 201.672 99.3352 201.703 100.21C201.703 100.288 201.602 100.327 201.398 100.327C201.18 100.327 201.062 100.273 201.047 100.163C200.969 99.7258 200.742 99.3117 200.367 98.9211C200.008 98.5305 199.594 98.3352 199.125 98.3352C198 98.3352 197.438 98.7961 197.438 99.718C197.438 99.9524 197.469 100.163 197.531 100.351C197.594 100.523 197.711 100.694 197.883 100.866C198.07 101.023 198.211 101.14 198.305 101.218C198.398 101.28 198.602 101.405 198.914 101.593C199.242 101.765 199.445 101.874 199.523 101.921C199.586 101.952 199.766 102.062 200.062 102.249C200.375 102.421 200.594 102.546 200.719 102.624C200.844 102.702 201.023 102.835 201.258 103.023C201.508 103.21 201.688 103.382 201.797 103.538C201.906 103.679 202.008 103.866 202.102 104.101C202.211 104.319 202.266 104.546 202.266 104.78C202.266 105.702 201.906 106.476 201.188 107.101C200.469 107.71 199.625 108.015 198.656 108.015C198.328 108.015 198.023 107.991 197.742 107.944C197.477 107.913 197.156 107.851 196.781 107.757C196.406 107.663 196.117 107.601 195.914 107.569C195.82 107.319 195.727 106.929 195.633 106.398C195.555 105.866 195.516 105.444 195.516 105.132C195.641 105.038 195.734 104.991 195.797 104.991C196.031 104.991 196.156 105.038 196.172 105.132C196.266 105.601 196.555 106.062 197.039 106.515C197.539 106.952 198.078 107.171 198.656 107.171C199.156 107.171 199.562 107.038 199.875 106.773C200.203 106.491 200.367 106.093 200.367 105.577C200.367 105.312 200.312 105.069 200.203 104.851C200.109 104.616 199.945 104.413 199.711 104.241C199.492 104.054 199.281 103.905 199.078 103.796C198.891 103.671 198.617 103.515 198.258 103.327C197.898 103.14 197.633 102.991 197.461 102.882C196.242 102.179 195.633 101.343 195.633 100.374C195.633 99.5305 195.969 98.843 196.641 98.3117C197.328 97.7805 198.125 97.5149 199.031 97.5149Z" fill="white"/>
<path d="M36.668 8.75213C36.668 13.5517 32.786 17.3984 27.9511 17.3984C23.1163 17.3984 19.2696 13.5164 19.252 8.71684C19.252 3.95257 23.1869 0 27.9511 0C32.7154 0 36.6503 3.88199 36.668 8.75213Z" fill="white"/>
</svg>
