<?xml version="1.0" encoding="UTF-8"?>
<svg id="Layer_2" data-name="Layer 2" xmlns="http://www.w3.org/2000/svg" viewBox="0 0 268.21 98.58">
  <defs>
    <style>
      .cls-1, .cls-2 {
        fill: #fff;
      }

      .cls-2 {
        font-family: CrimsonText-Regular, 'Crimson Text';
        font-size: 14px;
      }

      .cls-3 {
        fill: #273751;
      }

      .cls-4 {
        fill: #f54242;
      }
    </style>
  </defs>
  <g id="Layer_1-2" data-name="Layer 1">
    <g>
      <rect class="cls-3" width="268.21" height="98.58"/>
      <path class="cls-1" d="M49.63,26.7c0,2.72-2.2,4.9-4.94,4.9s-4.92-2.2-4.93-4.92c0-2.7,2.23-4.94,4.93-4.94s4.93,2.2,4.94,4.96Z"/>
      <g>
        <g>
          <polygon class="cls-4" points="28.46 63.3 44.51 34.25 60.93 63.3 53.36 63.3 44.69 47.85 36.32 63.3 28.46 63.3"/>
          <polygon class="cls-4" points="207.28 63.25 223.33 34.2 239.75 63.25 232.18 63.25 223.52 47.8 215.14 63.25 207.28 63.25"/>
          <path class="cls-4" d="M64.49,34.48v29.16h6.55v-9.77l4.42.22,7.43,9.56h7.54l-8.08-10.21c4.29-1.66,6.89-6.06,6.28-10.54-.59-4.3-4-7.75-8.35-8.41h-15.78Z"/>
          <polygon class="cls-4" points="94.5 34.19 94.5 63.3 101.05 63.3 101.05 46.75 121.8 63.3 121.8 33.86 115.09 33.86 115.14 50.62 94.5 34.19"/>
          <polygon class="cls-4" points="128.03 34.4 128.03 63.52 134.58 63.52 134.58 46.96 155.33 63.52 155.33 34.08 148.61 34.08 148.67 50.84 128.03 34.4"/>
          <rect class="cls-4" x="161.61" y="34.08" width="6.5" height="29.45"/>
          <polygon class="cls-4" points="174.44 34.08 174.44 63.52 181.1 63.52 181.1 52.7 188.97 63.07 196.94 52.59 197.16 63.52 203.71 63.52 203.49 34.08 189.08 53.57 174.44 34.08"/>
        </g>
        <path class="cls-3" d="M71.01,39.72v8.1h8.46c1.63-.65,2.72-2.21,2.77-3.94.05-1.81-1.06-3.48-2.77-4.16h-8.46Z"/>
      </g>
      <text class="cls-2" transform="translate(28.46 81.44)"><tspan x="0" y="0">Innovation that flows</tspan></text>
    </g>
  </g>
</svg>